<?xml version="1.0" encoding="utf-8"?>
<!-- Generator: Adobe Illustrator 15.0.0, SVG Export Plug-In . SVG Version: 6.00 Build 0)  -->
<!DOCTYPE svg PUBLIC "-//W3C//DTD SVG 1.1//EN" "http://www.w3.org/Graphics/SVG/1.1/DTD/svg11.dtd">
<svg version="1.1" id="Calque_1" xmlns="http://www.w3.org/2000/svg" xmlns:xlink="http://www.w3.org/1999/xlink" x="0px" y="0px"
	 width="100px" height="100px" viewBox="0 0 100 100" style="enable-background:new 0 0 100 100;" xml:space="preserve">
<circle style="fill:#F2C828;" cx="50" cy="50" r="47.343"/>
<path style="fill:#EDBA2B;" d="M50,2.657v94.686c26.146,0,47.343-21.196,47.343-47.343S76.146,2.657,50,2.657z"/>
<path style="fill:none;stroke:#2B2C32;stroke-width:8;stroke-linecap:round;stroke-miterlimit:10;" d="M65.36,68.077
	c-2.649,5.839-8.53,9.899-15.36,9.899c-6.83,0-12.711-4.061-15.361-9.899"/>
<rect x="42.652" y="42.881" style="fill:#2B2C32;" width="14.695" height="3.88"/>
<path style="fill:#2B2C32;" d="M6.699,43.342c0,10.8,8.755,19.556,19.556,19.556c10.8,0,19.556-8.756,19.556-19.556
	c0-10.8-8.755-11.671-19.556-11.671C15.454,31.671,6.699,32.542,6.699,43.342"/>
<path style="fill:#56565B;" d="M12.765,57.478c0.421,0.402,0.857,0.787,1.313,1.15l25.414-25.414
	c-0.591-0.229-1.218-0.422-1.873-0.59L12.765,57.478z"/>
<path style="fill:#56565B;" d="M43.458,35.859c-0.655-0.747-1.436-1.358-2.32-1.865l-25.66,25.659
	c0.854,0.565,1.761,1.056,2.702,1.484L43.458,35.859z"/>
<path style="fill:#2B2C32;" d="M54.189,43.342c0,10.8,8.755,19.556,19.557,19.556c10.8,0,19.555-8.756,19.555-19.556
	c0-10.8-8.755-11.671-19.555-11.671C62.944,31.671,54.189,32.542,54.189,43.342"/>
<path style="fill:#56565B;" d="M60.256,57.478c0.421,0.402,0.856,0.787,1.313,1.15l25.413-25.414
	c-0.591-0.229-1.218-0.422-1.873-0.59L60.256,57.478z"/>
<path style="fill:#56565B;" d="M90.948,35.859c-0.655-0.747-1.437-1.358-2.32-1.865l-25.66,25.659
	c0.854,0.565,1.761,1.056,2.702,1.484L90.948,35.859z"/>
</svg>
