<?xml version="1.0" encoding="utf-8"?>
<!-- Generator: Adobe Illustrator 15.0.0, SVG Export Plug-In . SVG Version: 6.00 Build 0)  -->
<!DOCTYPE svg PUBLIC "-//W3C//DTD SVG 1.1//EN" "http://www.w3.org/Graphics/SVG/1.1/DTD/svg11.dtd">
<svg version="1.1" xmlns="http://www.w3.org/2000/svg" xmlns:xlink="http://www.w3.org/1999/xlink" x="0px" y="0px"
	 width="148.624px" height="231.193px" viewBox="0 0 148.624 231.193" style="enable-background:new 0 0 148.624 231.193;"
	 xml:space="preserve">
<g id="gibet">
	<g>
		<g>
			<path d="M117.444,25.799V9.752H25.481V7.045H9.433v2.707v16.047v199.667h16.048V69.823l44.023-44.023 M25.481,25.799H46.81
				l-21.329,21.33V25.799z"/>
		</g>
	</g>
	<g>
		<g>
			<path d="M117.444,25.799V9.752H25.481V7.045H9.433v2.707v16.047v199.667h16.048V69.823l44.023-44.023 M25.481,25.799H46.81
				l-21.329,21.33V25.799z"/>
		</g>
	</g>
</g>
<g id="corde">
	<g>
		<path d="M107.959,25.643v49.616h-7.808c-0.51,0-0.924,0.414-0.924,0.924c0,0.51,0.414,0.923,0.924,0.923h11.922
			c0.51,0,0.923-0.414,0.923-0.923c0-0.51-0.413-0.924-0.923-0.924h-1.596V25.643"/>
		<path d="M100.152,77.666h11.922c0.51,0,0.923,0.414,0.923,0.924c0,0.51-0.413,0.923-0.923,0.923h-11.922
			c-0.51,0-0.924-0.414-0.924-0.923C99.228,78.08,99.642,77.666,100.152,77.666z"/>
		<path d="M100.152,80.073h11.922c0.51,0,0.923,0.414,0.923,0.924c0,0.51-0.413,0.923-0.923,0.923h-11.922
			c-0.51,0-0.924-0.414-0.924-0.923C99.228,80.486,99.642,80.073,100.152,80.073z"/>
		<path d="M100.152,82.479h11.922c0.51,0,0.923,0.414,0.923,0.924c0,0.51-0.413,0.923-0.923,0.923h-11.922
			c-0.51,0-0.924-0.414-0.924-0.923C99.228,82.893,99.642,82.479,100.152,82.479z"/>
	</g>
</g>
<g id="tete">
	<circle cx="92.22" cy="72.897" r="14.776"/>
</g>
<g id="corps">
	<path d="M90.541,119.239l0.575-31.609c1.293-1.982,2.111-3.147,2.111-3.147h25.019c0,0,3.39,28.927,3.525,32.238l0.896,21.801
		l0.111,2.714h-0.094c0.057,0.356,0.094,0.719,0.094,1.092v0.8H106.66H90.876v-0.8c0-0.373,0.037-0.735,0.094-1.092L90.541,119.239z
		"/>
</g>
<g id="brasDroit">
	<path d="M140.241,131.665c0,0-4.03,3.695-8.563,3.694c0,0-7.051-15.567-9.906-18.638c-0.136-3.311-3.525-32.238-3.525-32.238
		S136.211,111.852,140.241,131.665z"/>
</g>
<g id="brasGauche">
	<path d="M73.583,131.496c1.851-12.464,12.275-35.806,17.533-43.866l-0.575,31.609c-5.373,7.22-7.556,15.279-7.556,15.279
		C77.947,134.183,73.583,131.496,73.583,131.496z"/>
</g>
<g id="jambeDroite">
	<path d="M122.779,143.127v39.162c0,3.848-3.119,6.969-6.968,6.969s-6.969-3.121-6.969-6.969v-37.224
		c-0.083-1.048-0.949-1.875-2.018-1.875c-0.057,0-0.109,0.011-0.165,0.016v-0.079H122.779z"/>
</g>
<g id="jambeGauche">
	<path d="M106.66,143.206c-0.968,0.079-1.738,0.831-1.847,1.792v37.291c0,3.848-3.12,6.969-6.969,6.969s-6.968-3.121-6.968-6.969
		v-39.162h15.783V143.206z"/>
</g>
</svg>
